<svg xmlns="http://www.w3.org/2000/svg" version="1.1"><polyline points="175.5,70.0,158.5,82.0,142.0,84.5,154.0,79.5" stroke="black" stroke-width="2" fill="none" />
<polyline points="180.5,96.0,171.5,106.5,183.0,95.0" stroke="black" stroke-width="2" fill="none" />
<polyline points="196.5,85.5,208.5,84.0,220.5,79.5,233.0,73.5,245.5,70.0,257.5,68.0,269.5,65.0,281.5,63.5,303.5,90.5,316.0,91.0,317.5,95.0" stroke="black" stroke-width="2" fill="none" />
<polyline points="313.5,102.5,301.5,98.0" stroke="black" stroke-width="2" fill="none" />
<polyline points="318.0,102.0,298.0,90.0,298.5,74.5,286.5,73.5" stroke="black" stroke-width="2" fill="none" />
<polyline points="286.5,70.0,298.5,71.5" stroke="black" stroke-width="2" fill="none" />
<polyline points="284.0,80.5,295.5,89.5,307.5,95.5,319.5,100.0" stroke="black" stroke-width="2" fill="none" />
<polyline points="333.0,89.0,323.0,88.0,311.5,86.0,299.5,87.0,287.5,79.5,275.5,73.0" stroke="black" stroke-width="2" fill="none" />
<polyline points="275.0,74.0,288.5,86.0,300.0,98.0,312.0,119.0,322.0,117.5" stroke="black" stroke-width="2" fill="none" />
<polyline points="323.5,114.0,311.5,115.5,299.5,113.5,287.5,121.0,275.5,118.0,263.0,113.5,250.5,111.0,237.0,120.0,224.5,119.0,213.0,117.5,201.0,120.5,189.0,125.5,177.0,130.0" stroke="black" stroke-width="2" fill="none" />
<polyline points="157.0,128.0,152.5,140.0,143.5,151.5,152.5,138.0" stroke="black" stroke-width="2" fill="none" />
<polyline points="124.5,117.5,124.0,105.5" stroke="black" stroke-width="2" fill="none" />
<polyline points="120.0,101.5,112.5,113.5,96.5,125.0,96.5,137.0,93.0,149.0,88.5,161.0,86.5,173.0,93.0,180.5,93.0,198.5,88.5,203.0,95.0,179.5" stroke="black" stroke-width="2" fill="none" />
<polyline points="90.0,178.5,84.0,210.0,72.0,219.0" stroke="black" stroke-width="2" fill="none" />
<polyline points="67.5,223.0,79.5,238.0,73.5,243.0,80.0,251.0,83.0,251.0,97.0,251.5,95.0,256.5,95.0,268.5,112.5,279.0,107.5,300.0" stroke="black" stroke-width="2" fill="none" />
<polyline points="123.0,304.0,124.0,296.5,118.0,290.0,113.5,279.5,101.5,268.5" stroke="black" stroke-width="2" fill="none" />
<polyline points="98.5,261.0,98.5,262.5,97.0,274.5,95.5,286.5,94.0,305.0,105.5,326.0,118.0,338.0,130.0,337.0,142.0,354.0" stroke="black" stroke-width="2" fill="none" />
<polyline points="135.5,337.0,141.5,349.0,144.5,361.0,146.0,372.5,147.0,384.0,149.0,396.0,150.0,407.5,150.0,420.0,130.5,432.0,124.5,444.5,121.5,456.5,117.0,468.0,102.0,480.0,81.5,492.0,59.0,504.0" stroke="black" stroke-width="2" fill="none" />
<polyline points="26.0,515.0,2.0,525.5,14.0,519.5,25.5,515.0,37.0,512.0,49.0,509.5,61.0,503.5,73.0,496.0,85.5,491.5,98.0,484.0,110.0,476.5" stroke="black" stroke-width="2" fill="none" />
<polyline points="122.5,452.5,134.5,430.0,146.5,424.0,152.5,430.5,154.0,442.5,153.5,454.5,156.5,466.5,162.5,478.5" stroke="black" stroke-width="2" fill="none" />
<polyline points="161.0,499.5,162.5,511.5,168.5,524.0,176.0,536.0,183.5,548.0,191.0,560.5,201.5,572.5,210.0,584.5,223.5,596.5,235.5,608.5,239.5,620.5,250.5,632.5" stroke="black" stroke-width="2" fill="none" />
<polyline points="357.5,546.5,345.5,512.0,333.5,487.5" stroke="black" stroke-width="2" fill="none" />
<polyline points="341.5,459.0,352.5,471.0,361.0,483.0,368.5,494.5,374.5,506.0,388.0,517.5,413.0,529.5,441.0,542.0,469.5,554.0,488.0,566.0,506.0,578.0" stroke="black" stroke-width="2" fill="none" />
<polyline points="509.0,579.5,497.0,570.5,485.0,563.0,472.5,555.5,460.5,549.5,448.5,545.0,437.0,538.5,425.5,534.0,413.5,527.5,401.5,522.5,389.5,517.0,378.0,508.0,366.0,486.0,353.5,469.5,341.5,456.0" stroke="black" stroke-width="2" fill="none" />
<polyline points="348.5,390.5,360.5,368.0,366.5,354.5,362.0,367.0,354.5,379.0,348.5,391.0,339.0,404.5,351.0,374.0" stroke="black" stroke-width="2" fill="none" />
<polyline points="366.0,386.5,354.0,406.0,336.5,422.5,325.0,437.0,313.5,446.5,301.5,452.5,289.5,452.5,277.0,453.5,265.0,448.5,252.5,445.5,240.0,441.0,228.0,431.0,216.0,411.5,204.0,391.0,193.5,376.5,181.5,349.5" stroke="black" stroke-width="2" fill="none" />
<polyline points="188.5,349.0,200.5,335.5,212.5,325.0,224.5,314.5,236.0,307.0,250.0,297.0,244.0,308.5,244.0,320.0,257.5,333.5,270.0,344.0" stroke="black" stroke-width="2" fill="none" />
<polyline points="288.0,340.5,275.5,345.0,263.5,342.0,251.5,330.0" stroke="black" stroke-width="2" fill="none" />
<polyline points="244.0,321.5,256.0,324.5,268.0,325.5" stroke="black" stroke-width="2" fill="none" />
<polyline points="248.5,316.0,260.5,319.0,273.0,322.0,285.0,325.0,297.5,320.5,309.5,319.5" stroke="black" stroke-width="2" fill="none" />
<polyline points="318.5,308.5,331.0,319.0,343.0,329.0" stroke="black" stroke-width="2" fill="none" />
<polyline points="348.0,328.0,336.0,318.0,324.5,307.5" stroke="black" stroke-width="2" fill="none" />
<polyline points="321.5,305.5,335.0,317.5,348.5,329.0,354.5,341.0,345.0,345.0,343.5,356.5" stroke="black" stroke-width="2" fill="none" />
<polyline points="353.0,348.0,338.0,350.0,326.5,363.5,314.5,368.0,301.0,380.0,302.5,375.5,310.0,375.5,319.0,363.5,327.5,361.5,338.0,349.0,345.5,337.0,336.5,325.0,323.5,312.5,328.5,303.0,316.5,304.5" stroke="black" stroke-width="2" fill="none" />
<polyline points="304.0,320.5,293.5,334.0,291.5,332.5,299.0,319.0,293.0,304.0,289.0,313.0" stroke="black" stroke-width="2" fill="none" />
<polyline points="278.5,320.5,268.0,308.5,268.0,296.5" stroke="black" stroke-width="2" fill="none" />
<polyline points="244.0,300.5,227.5,312.5,214.0,324.0,200.5,336.0,190.0,348.0,187.0,357.0,191.5,369.0,196.0,380.5,200.5,385.0,208.0,397.5,215.5,409.5,221.5,421.5,232.0,433.5,246.0,446.0,260.5,451.0" stroke="black" stroke-width="2" fill="none" />
<polyline points="305.5,450.0,321.5,438.0,333.5,425.5,339.5,412.0,341.5,400.5,346.5,388.5,352.5,376.5,357.0,365.0,364.0,353.0,357.5,364.0,348.0,350.5,335.5,342.0,323.5,351.0,311.5,352.5,300.0,353.5,288.0,356.5,276.0,357.5,264.0,354.0,251.5,352.5,239.5,352.5,228.0,351.0,216.0,349.5,203.5,346.5" stroke="black" stroke-width="2" fill="none" />
<polyline points="202.5,347.5,216.0,359.5,237.0,371.5,241.5,368.5,251.0,361.0,262.5,362.0,274.5,362.0,286.0,360.5,298.0,360.0,310.0,355.5" stroke="black" stroke-width="2" fill="none" />
<polyline points="297.5,371.5,285.5,376.0,273.5,377.0,261.5,375.0,251.0,370.5,236.0,369.0,230.0,361.5,217.5,358.5,211.5,342.0,199.5,345.5" stroke="black" stroke-width="2" fill="none" />
<polyline points="183.0,371.5,195.0,391.0,207.0,409.0" stroke="black" stroke-width="2" fill="none" />
<polyline points="197.5,407.0,185.5,392.5,173.5,371.5" stroke="black" stroke-width="2" fill="none" />
<polyline points="174.5,372.0,180.5,383.5,187.5,395.5,197.0,407.0" stroke="black" stroke-width="2" fill="none" />
<polyline points="211.5,419.0,205.5,407.0,196.0,395.5,188.5,384.0,182.0,372.0" stroke="black" stroke-width="2" fill="none" />
<polyline points="243.5,358.0,236.0,361.5,236.0,366.0,251.0,377.5,259.5,379.0,279.0,383.5,291.0,383.0" stroke="black" stroke-width="2" fill="none" />
<polyline points="357.0,392.5,347.0,409.0,356.0,397.5,362.0,385.0,366.5,372.5,369.0,360.5" stroke="black" stroke-width="2" fill="none" />
<polyline points="378.0,332.0,390.0,327.5" stroke="black" stroke-width="2" fill="none" />
<polyline points="390.5,321.0,378.5,327.0,390.0,326.5,397.5,314.5,400.5,303.0,403.5,291.0,403.5,279.0,402.5,267.5,402.5,260.0" stroke="black" stroke-width="2" fill="none" />
<polyline points="402.5,252.5,408.5,257.0,391.0,269.5,385.0,281.0" stroke="black" stroke-width="2" fill="none" />
<polyline points="404.0,248.5,416.0,247.0" stroke="black" stroke-width="2" fill="none" />
<polyline points="429.0,234.0,417.0,239.5,416.0,236.5,404.0,232.5" stroke="black" stroke-width="2" fill="none" />
<polyline points="423.0,241.0,420.5,246.0,409.0,245.0,397.0,252.5,397.5,263.5,385.5,276.0,391.5,282.0,391.5,288.0,387.0,295.5,392.5,283.0,396.5,268.5,393.0,253.0,417.0,236.5,430.5,233.0,430.5,221.0,428.5,209.0,428.5,206.0,413.5,197.5,413.5,185.5,409.0,173.5,398.5,159.5,401.5,158.0,397.5,146.0,390.0,142.5,382.5,130.5,387.0,126.0,379.5,114.0,372.0,105.5,369.0,96.5,352.5,85.0,342.0,73.0,328.5,61.0,309.5,49.0,296.0,56.0,284.0,50.0,271.5,45.0" stroke="black" stroke-width="2" fill="none" />
<polyline points="267.0,38.0,279.0,41.5,290.5,44.0,302.5,48.5,314.0,55.5,325.5,63.0" stroke="black" stroke-width="2" fill="none" />
<polyline points="352.0,106.0,364.5,110.0" stroke="black" stroke-width="2" fill="none" />
<polyline points="371.0,106.5,383.5,116.5" stroke="black" stroke-width="2" fill="none" />
<polyline points="386.0,111.5,392.0,123.5,400.5,137.0,400.0,148.0" stroke="black" stroke-width="2" fill="none" />
<polyline points="405.5,163.0,417.5,185.5" stroke="black" stroke-width="2" fill="none" />
<polyline points="423.5,196.0,411.5,199.0,400.0,206.5" stroke="black" stroke-width="2" fill="none" />
<polyline points="412.0,190.5,400.0,182.0,388.0,167.0" stroke="black" stroke-width="2" fill="none" />
<polyline points="382.5,159.5,395.0,159.5,393.0,161.0,400.5,174.5,404.5,177.0" stroke="black" stroke-width="2" fill="none" />
<polyline points="389.0,176.0,378.5,165.5" stroke="black" stroke-width="2" fill="none" />
<polyline points="382.0,186.5,376.0,175.0,376.0,163.0,375.5,151.0,374.0,139.0,370.0,127.0,366.5,115.0,357.5,105.5,348.5,88.0,332.5,76.0,326.5,64.5,305.0,52.5,292.5,40.0,274.5,35.5,263.0,35.5,251.0,34.0" stroke="black" stroke-width="2" fill="none" />
<polyline points="250.0,48.5,262.0,52.5,274.5,54.0,290.0,53.5,299.0,59.0,314.5,63.5,332.5,75.5,344.0,84.5" stroke="black" stroke-width="2" fill="none" />
<polyline points="320.0,64.5,308.5,57.0,302.5,60.0,289.0,48.0,277.0,43.5,265.0,43.5,253.0,42.0,241.0,46.5,229.0,51.0,218.5,58.5,206.5,59.5" stroke="black" stroke-width="2" fill="none" />
<polyline points="205.5,55.5,217.5,51.0,216.0,44.0,192.5,45.5,170.0,58.0,153.5,70.5,138.5,82.5,128.0,94.5,105.5,106.0,99.5,118.5,98.0,124.5,109.5,115.5,121.5,101.5,140.5,91.0,153.0,83.5,169.5,74.0,183.0,69.0,195.0,62.5,208.5,68.5,221.0,67.0,233.0,64.0,236.0,74.5,248.0,73.0,260.0,73.0,261.0,76.5,268.5,68.0,281.0,71.0,293.0,66.5,305.5,75.5,316.0,77.0,328.0,83.0" stroke="black" stroke-width="2" fill="none" />
<polyline points="347.5,119.5,355.5,131.5,362.5,143.5,370.0,156.0,388.0,167.0,390.5,179.5,396.5,179.5,411.5,191.5,408.0,217.0,402.0,228.5,410.5,217.5,422.5,219.5,425.5,207.5" stroke="black" stroke-width="2" fill="none" />
<polyline points="381.0,235.5,384.0,247.5" stroke="black" stroke-width="2" fill="none" />
<polyline points="356.5,272.0,358.0,252.5,354.5,251.0,342.5,246.0" stroke="black" stroke-width="2" fill="none" />
<polyline points="339.0,245.0,357.0,252.5" stroke="black" stroke-width="2" fill="none" />
<polyline points="343.5,251.5,331.0,256.5,319.0,255.0" stroke="black" stroke-width="2" fill="none" />
<polyline points="317.5,246.0,317.5,250.5,315.5,267.5,327.5,272.0,340.0,274.0,352.0,271.0,364.0,259.0" stroke="black" stroke-width="2" fill="none" />
<polyline points="364.5,251.0,352.5,245.0,340.5,243.0,329.0,242.0,317.5,242.0,305.5,245.0" stroke="black" stroke-width="2" fill="none" />
<polyline points="297.5,257.5,309.0,256.0,321.0,247.0,338.5,251.0,359.0,261.5" stroke="black" stroke-width="2" fill="none" />
<polyline points="348.0,267.5,336.5,269.0,324.5,267.5,323.5,259.5,312.0,267.0,300.0,262.5" stroke="black" stroke-width="2" fill="none" />
<polyline points="316.5,235.0,306.0,247.0,309.5,238.0,322.0,235.0,334.5,233.5,346.5,230.0" stroke="black" stroke-width="2" fill="none" />
<polyline points="337.5,219.5,325.5,216.5,314.0,219.5,311.0,233.0,299.0,238.5,295.5,250.5,298.5,238.5,318.0,226.5" stroke="black" stroke-width="2" fill="none" />
<polyline points="364.0,211.0,360.0,199.0,360.0,187.0" stroke="black" stroke-width="2" fill="none" />
<polyline points="370.0,188.5,371.5,200.5,372.5,212.5,373.5,224.5,367.5,236.5,375.0,242.5,376.5,254.5,378.0,266.0,380.0,278.0,381.0,290.0,378.0,302.5,376.5,314.5,376.5,326.0,376.5,339.5,374.5,351.5,373.5,363.0,370.5,375.0,366.5,386.5,359.5,398.5,350.5,410.5,344.5,422.5,341.5,435.0,340.0,447.0,338.5,459.5,336.5,472.0,334.5,483.5,334.5,496.0,342.0,508.5,346.5,520.5,350.5,532.0,355.0,544.0,358.0,556.0,359.5,567.5,358.5,579.5,359.0,591.5,356.0,603.5,353.0,615.5,350.0,627.5" stroke="black" stroke-width="2" fill="none" />
<polyline points="237.5,503.5,225.0,491.5,213.0,481.5" stroke="black" stroke-width="2" fill="none" />
<polyline points="214.0,482.5,226.0,494.5,243.5,504.5" stroke="black" stroke-width="2" fill="none" />
<polyline points="161.0,504.5,173.0,529.0,184.5,550.0,196.5,566.5,209.0,581.5,220.5,593.5,233.0,603.0,245.0,624.0" stroke="black" stroke-width="2" fill="none" />
<polyline points="236.5,255.0,224.5,250.5" stroke="black" stroke-width="2" fill="none" />
<polyline points="222.0,247.0,242.0,250.0" stroke="black" stroke-width="2" fill="none" />
<polyline points="230.0,248.5,218.0,252.5,211.0,252.5,200.5,252.0,188.0,254.0" stroke="black" stroke-width="2" fill="none" />
<polyline points="187.0,252.5,199.0,246.0,187.0,256.5,192.0,262.5,204.5,266.0,216.0,263.0,228.0,261.5" stroke="black" stroke-width="2" fill="none" />
<polyline points="254.5,251.5,242.5,240.5,236.5,237.5,225.0,235.5,213.5,235.5,202.0,234.0,190.0,235.5" stroke="black" stroke-width="2" fill="none" />
<polyline points="180.0,249.0,192.0,243.5,203.5,243.5,216.0,242.5,228.5,243.5,241.0,248.0" stroke="black" stroke-width="2" fill="none" />
<polyline points="256.0,239.0,244.0,234.5,232.0,218.0,220.0,219.0,208.5,223.5,219.0,219.0" stroke="black" stroke-width="2" fill="none" />
<polyline points="229.5,217.5,241.0,229.5,245.5,243.5,255.5,255.5,251.0,267.0,243.0,279.5,253.5,260.0" stroke="black" stroke-width="2" fill="none" />
<polyline points="190.5,269.0,178.5,263.5,166.0,260.5,164.5,256.0" stroke="black" stroke-width="2" fill="none" />
<polyline points="163.0,253.5,175.0,253.5" stroke="black" stroke-width="2" fill="none" />
<polyline points="96.0,237.5,81.0,236.0,69.5,227.5" stroke="black" stroke-width="2" fill="none" />
<polyline points="99.5,157.0,94.5,169.0,90.0,181.0,85.5,193.0,88.0,204.5,76.0,216.5,71.5,231.5,70.5,243.5,90.0,256.0,86.5,268.0,91.0,272.5,83.5,284.5,91.5,290.5,93.0,302.0,98.0,314.0,106.0,326.0,119.5,338.5" stroke="black" stroke-width="2" fill="none" />
<polyline points="99.5,116.0,111.0,101.0,122.5,95.5,134.5,85.5,146.0,75.0,158.0,64.5,170.0,58.5,182.5,52.5,195.0,45.0,207.5,40.0,219.5,37.0,231.5,34.0,243.0,31.0,255.0,28.0,267.5,31.5,280.0,34.5,292.0,37.0,303.5,44.5,315.5,51.5,327.5,59.5,340.0,68.5,351.5,80.5,363.5,92.5,376.0,101.5,388.0,113.5,400.0,134.0" stroke="black" stroke-width="2" fill="none" />
<polyline points="381.0,126.0,379.5,137.5,380.5,149.5,380.0,167.5,384.5,179.5" stroke="black" stroke-width="2" fill="none" />
<polyline points="367.5,144.0,362.5,131.5,348.5,126.0,337.0,121.5,325.0,121.5,312.5,125.5,301.0,127.0,289.0,128.5,277.0,131.5,265.0,130.0,253.5,128.5,241.5,125.5,229.0,128.5" stroke="black" stroke-width="2" fill="none" />
<polyline points="247.5,114.0,259.5,120.0" stroke="black" stroke-width="2" fill="none" />
<polyline points="270.0,100.0,258.0,94.0" stroke="black" stroke-width="2" fill="none" />
<polyline points="255.5,94.0,263.0,93.0" stroke="black" stroke-width="2" fill="none" />
<polyline points="262.5,92.0,274.5,96.5" stroke="black" stroke-width="2" fill="none" />
<polyline points="266.0,98.5,246.5,97.0,234.5,97.0" stroke="black" stroke-width="2" fill="none" />
<polyline points="214.0,89.5,225.5,91.0,227.0,93.0,238.0,105.0,254.5,116.5" stroke="black" stroke-width="2" fill="none" />
<polyline points="211.5,75.0,200.0,72.0" stroke="black" stroke-width="2" fill="none" />
<polyline points="199.0,88.5,211.0,85.5,223.0,84.0,235.5,86.0,242.5,80.5,254.5,80.5" stroke="black" stroke-width="2" fill="none" />
<polyline points="239.0,39.5,227.0,41.0,215.0,45.5" stroke="black" stroke-width="2" fill="none" />
<polyline points="338.5,123.5,359.5,137.0,371.5,158.5,383.5,187.0" stroke="black" stroke-width="2" fill="none" />
<polyline points="406.0,176.0,398.5,165.5,393.0,149.5,396.5,137.0,398.0,125.0,389.0,113.0" stroke="black" stroke-width="2" fill="none" />
</svg>